<svg width="200" height="200" viewBox="0 0 200 200" xmlns="http://www.w3.org/2000/svg">
  <path d="M198.00,100.00 L197.93,122.42 L197.73,131.68 L197.39,138.76 L196.92,144.69 L196.32,149.86 L195.57,154.48 L194.69,158.67 L193.67,162.50 L192.51,166.03 L191.20,169.30 L189.75,172.32 L188.15,175.13 L186.39,177.74 L184.48,180.16 L182.41,182.41 L180.16,184.48 L177.74,186.39 L175.13,188.15 L172.32,189.75 L169.30,191.20 L166.03,192.51 L162.50,193.67 L158.67,194.69 L154.48,195.57 L149.86,196.32 L144.69,196.92 L138.76,197.39 L131.68,197.73 L122.42,197.93 L100.00,198.00 L77.58,197.93 L68.32,197.73 L61.24,197.39 L55.31,196.92 L50.14,196.32 L45.52,195.57 L41.33,194.69 L37.50,193.67 L33.97,192.51 L30.70,191.20 L27.68,189.75 L24.87,188.15 L22.26,186.39 L19.84,184.48 L17.59,182.41 L15.52,180.16 L13.61,177.74 L11.85,175.13 L10.25,172.32 L8.80,169.30 L7.49,166.03 L6.33,162.50 L5.31,158.67 L4.43,154.48 L3.68,149.86 L3.08,144.69 L2.61,138.76 L2.27,131.68 L2.07,122.42 L2.00,100.00 L2.07,77.58 L2.27,68.32 L2.61,61.24 L3.08,55.31 L3.68,50.14 L4.43,45.52 L5.31,41.33 L6.33,37.50 L7.49,33.97 L8.80,30.70 L10.25,27.68 L11.85,24.87 L13.61,22.26 L15.52,19.84 L17.59,17.59 L19.84,15.52 L22.26,13.61 L24.87,11.85 L27.68,10.25 L30.70,8.80 L33.97,7.49 L37.50,6.33 L41.33,5.31 L45.52,4.43 L50.14,3.68 L55.31,3.08 L61.24,2.61 L68.32,2.27 L77.58,2.07 L100.00,2.00 L122.42,2.07 L131.68,2.27 L138.76,2.61 L144.69,3.08 L149.86,3.68 L154.48,4.43 L158.67,5.31 L162.50,6.33 L166.03,7.49 L169.30,8.80 L172.32,10.25 L175.13,11.85 L177.74,13.61 L180.16,15.52 L182.41,17.59 L184.48,19.84 L186.39,22.26 L188.15,24.87 L189.75,27.68 L191.20,30.70 L192.51,33.97 L193.67,37.50 L194.69,41.33 L195.57,45.52 L196.32,50.14 L196.92,55.31 L197.39,61.24 L197.73,68.32 L197.93,77.58 Z" fill="#1565C0"/>
  <text x="100" y="131" text-anchor="middle" fill="#FFFFFF" font-family="-apple-system, Helvetica, Arial, sans-serif" font-size="90" font-weight="700">13</text>
</svg>